<svg width="42" height="42" viewBox="0 0 42 42" fill="none" xmlns="http://www.w3.org/2000/svg">
<rect x="1" y="1" width="40" height="40" rx="20" fill="white"/>
<path d="M21 21.8334C21.4602 21.8334 21.8333 21.4603 21.8333 21.0001C21.8333 20.5398 21.4602 20.1667 21 20.1667C20.5397 20.1667 20.1666 20.5398 20.1666 21.0001C20.1666 21.4603 20.5397 21.8334 21 21.8334Z" stroke="#98A2B3" stroke-width="1.66667" stroke-linecap="round" stroke-linejoin="round"/>
<path d="M26.8333 21.8334C27.2935 21.8334 27.6666 21.4603 27.6666 21.0001C27.6666 20.5398 27.2935 20.1667 26.8333 20.1667C26.3731 20.1667 26 20.5398 26 21.0001C26 21.4603 26.3731 21.8334 26.8333 21.8334Z" stroke="#98A2B3" stroke-width="1.66667" stroke-linecap="round" stroke-linejoin="round"/>
<path d="M15.1666 21.8334C15.6269 21.8334 16 21.4603 16 21.0001C16 20.5398 15.6269 20.1667 15.1666 20.1667C14.7064 20.1667 14.3333 20.5398 14.3333 21.0001C14.3333 21.4603 14.7064 21.8334 15.1666 21.8334Z" stroke="#98A2B3" stroke-width="1.66667" stroke-linecap="round" stroke-linejoin="round"/>
<rect x="1" y="1" width="40" height="40" rx="20" stroke="#D0D5DD" stroke-linecap="round" stroke-linejoin="round" stroke-dasharray="1 3"/>
</svg>
