<svg width="25" height="24" viewBox="0 0 25 24" fill="none" xmlns="http://www.w3.org/2000/svg">
<path d="M20.3752 11.2498C21.4106 11.2498 22.25 10.4104 22.25 9.37496C22.25 8.33952 21.4105 7.50012 20.3751 7.50012C19.3395 7.50012 18.5 8.33959 18.5 9.37512V11.2498H20.3752ZM15.125 11.2498C16.1605 11.2498 17 10.4103 17 9.3748V4.12512C17 3.08959 16.1605 2.25012 15.125 2.25012C14.0895 2.25012 13.25 3.08959 13.25 4.12512V9.3748C13.25 10.4103 14.0895 11.2498 15.125 11.2498Z" fill="#2EB67D"/>
<path d="M4.62484 12.7502C3.58939 12.7502 2.75 13.5896 2.75 14.625C2.75 15.6605 3.58947 16.4999 4.62492 16.4999C5.66045 16.4999 6.5 15.6604 6.5 14.6249V12.7502H4.62484ZM9.875 12.7502C8.83947 12.7502 8 13.5897 8 14.6252V19.8749C8 20.9104 8.83947 21.7499 9.875 21.7499C10.9105 21.7499 11.75 20.9104 11.75 19.8749V14.6252C11.75 13.5897 10.9105 12.7502 9.875 12.7502Z" fill="#E01E5A"/>
<path d="M13.2501 19.8752C13.2501 20.9106 14.0895 21.75 15.125 21.75C16.1604 21.75 16.9998 20.9105 16.9998 19.8751C16.9998 18.8395 16.1603 18 15.1248 18L13.2501 18L13.2501 19.8752ZM13.2501 14.625C13.2501 15.6605 14.0896 16.5 15.1251 16.5L20.3748 16.5C21.4103 16.5 22.2498 15.6605 22.2498 14.625C22.2498 13.5895 21.4104 12.75 20.3748 12.75L15.1251 12.75C14.0896 12.75 13.2501 13.5895 13.2501 14.625Z" fill="#ECB22E"/>
<path d="M11.7498 4.12484C11.7498 3.08939 10.9104 2.25 9.87496 2.25C8.83952 2.25 8.00012 3.08947 8.00012 4.12492C8.00012 5.16045 8.83959 6 9.87512 6L11.7498 6L11.7498 4.12484ZM11.7498 9.375C11.7498 8.33947 10.9103 7.5 9.8748 7.5L4.62512 7.5C3.58959 7.5 2.75012 8.33947 2.75012 9.375C2.75012 10.4105 3.58959 11.25 4.62512 11.25L9.8748 11.25C10.9103 11.25 11.7498 10.4105 11.7498 9.375Z" fill="#36C5F0"/>
</svg>
